<svg version="1.1" id="svg4136" viewBox="0 0 30.6 15.6" height="16.64" width="32.64" xmlns="http://www.w3.org/2000/svg">
    <defs id="defs4138">
        <marker style="overflow:visible" id="Arrow1Mend" refX="0" refY="0" orient="auto">
            <path transform="matrix(-.4 0 0 -.4 -4 0)" style="fill:#000000;fill-opacity:1;fill-rule:evenodd;stroke:#000000;stroke-width:1pt;stroke-opacity:1" d="m0 0 5-5-17.5 5L5 5Z" id="path4750"/>
        </marker>
        <marker style="overflow:visible" id="Arrow2Mend" refX="0" refY="0" orient="auto">
            <path transform="scale(-.6)" d="M8.719 4.034-2.207.016 8.719-4.002c-1.746 2.372-1.736 5.618 0 8.036z" style="fill:#000000;fill-opacity:1;fill-rule:evenodd;stroke:#000000;stroke-width:0.625;stroke-linejoin:round;stroke-opacity:1" id="path4768"/>
        </marker>
        <marker style="overflow:visible" id="Arrow1Send" refX="0" refY="0" orient="auto">
            <path transform="matrix(-.2 0 0 -.2 -1.2 0)" style="fill:#000000;fill-opacity:1;fill-rule:evenodd;stroke:#000000;stroke-width:1pt;stroke-opacity:1" d="m0 0 5-5-17.5 5L5 5Z" id="path4756"/>
        </marker>
        <marker style="overflow:visible" id="Arrow1Lstart" refX="0" refY="0" orient="auto">
            <path transform="matrix(.8 0 0 .8 10 0)" style="fill:#000000;fill-opacity:1;fill-rule:evenodd;stroke:#000000;stroke-width:1pt;stroke-opacity:1" d="m0 0 5-5-17.5 5L5 5Z" id="path4741"/>
        </marker>
        <marker style="overflow:visible" id="Arrow1Lend" refX="0" refY="0" orient="auto">
            <path transform="matrix(-.8 0 0 -.8 -10 0)" style="fill:#000000;fill-opacity:1;fill-rule:evenodd;stroke:#000000;stroke-width:1pt;stroke-opacity:1" d="m0 0 5-5-17.5 5L5 5Z" id="path4744"/>
        </marker>
    </defs>
    <g id="layer1">
        <g id="layer" transform="translate(.3 -4.7)">
            <rect ry="0" y="5" x="0" height="15" width="30" id="rect4190" style="opacity:0.94;fill:none;fill-rule:evenodd;stroke:#000000;stroke-width:0.6;stroke-linecap:square;stroke-linejoin:miter;stroke-miterlimit:2;stroke-dasharray:none;stroke-opacity:1"/>
            <path id="path965" d="M12 9v7" style="fill:none;stroke:#000000;stroke-width:0.6;stroke-linecap:butt;stroke-linejoin:miter;stroke-miterlimit:4;stroke-dasharray:none;stroke-opacity:1"/>
            <path id="path967" d="m15 10 3 2.469L15 15" style="fill:none;stroke:#000000;stroke-width:0.6;stroke-linecap:butt;stroke-linejoin:miter;stroke-miterlimit:4;stroke-dasharray:none;stroke-opacity:1"/>
        </g>
    </g>
</svg>
