<svg width="30.3" height="25.3" id="svg4136" version="1.1" xmlns="http://www.w3.org/2000/svg">
    <defs id="defs4138">
        <marker orient="auto" refY="0" refX="0" id="Arrow1Mend" style="overflow:visible">
            <path id="path4750" d="m0 0 5-5-17.5 5L5 5Z" style="fill:#000000;fill-opacity:1;fill-rule:evenodd;stroke:#000000;stroke-width:1pt;stroke-opacity:1" transform="matrix(-.4 0 0 -.4 -4 0)"/>
        </marker>
        <marker orient="auto" refY="0" refX="0" id="Arrow2Mend" style="overflow:visible">
            <path id="path4768" style="fill:#000000;fill-opacity:1;fill-rule:evenodd;stroke:#000000;stroke-width:0.625;stroke-linejoin:round;stroke-opacity:1" d="M8.719 4.034-2.207.016 8.719-4.002c-1.746 2.372-1.736 5.618 0 8.036z" transform="scale(-.6)"/>
        </marker>
        <marker orient="auto" refY="0" refX="0" id="Arrow1Send" style="overflow:visible">
            <path id="path4756" d="m0 0 5-5-17.5 5L5 5Z" style="fill:#000000;fill-opacity:1;fill-rule:evenodd;stroke:#000000;stroke-width:1pt;stroke-opacity:1" transform="matrix(-.2 0 0 -.2 -1.2 0)"/>
        </marker>
        <marker orient="auto" refY="0" refX="0" id="Arrow1Lstart" style="overflow:visible">
            <path id="path4741" d="m0 0 5-5-17.5 5L5 5Z" style="fill:#000000;fill-opacity:1;fill-rule:evenodd;stroke:#000000;stroke-width:1pt;stroke-opacity:1" transform="matrix(.8 0 0 .8 10 0)"/>
        </marker>
        <marker orient="auto" refY="0" refX="0" id="Arrow1Lend" style="overflow:visible">
            <path id="path4744" d="m0 0 5-5-17.5 5L5 5Z" style="fill:#000000;fill-opacity:1;fill-rule:evenodd;stroke:#000000;stroke-width:1pt;stroke-opacity:1" transform="matrix(-.8 0 0 -.8 -10 0)"/>
        </marker>
    </defs>
    <g id="layer1">
        <g id="g1" transform="matrix(-1 0 0 1 30.318 0)">
            <path style="fill:none;fill-rule:evenodd;stroke:#000000;stroke-width:0.6;stroke-linecap:butt;stroke-linejoin:miter;stroke-miterlimit:4;stroke-dasharray:none;stroke-opacity:1" d="M.013 20.3h10.22" id="path4711"/>
            <path style="fill:none;fill-rule:evenodd;stroke:#000000;stroke-width:0.6;stroke-linecap:butt;stroke-linejoin:miter;stroke-miterlimit:4;stroke-dasharray:none;stroke-opacity:1" d="M10 22.3V18" id="path4711-9"/>
            <path id="path4719" d="M29.125 20.3h1.18" style="fill:none;fill-rule:evenodd;stroke:#000000;stroke-width:0.6;stroke-linecap:butt;stroke-linejoin:miter;stroke-miterlimit:4;stroke-dasharray:none;stroke-opacity:1"/>
            <path style="fill:none;fill-rule:evenodd;stroke:#000000;stroke-width:0.6;stroke-linecap:butt;stroke-linejoin:miter;stroke-miterlimit:4;stroke-dasharray:none;stroke-opacity:1" d="m29.273 20.352-19.227-5.26" id="path4727"/>
        </g>
        <circle style="fill:none;stroke:#000000;stroke-width:0.6" id="path1" cx="19.086" cy="20.3" r="1"/>
        <rect style="fill:none;fill-rule:evenodd;stroke:#000000;stroke-width:0.6;stroke-linecap:butt;stroke-linejoin:miter;stroke-miterlimit:4;stroke-dasharray:none;stroke-opacity:1" id="rect4192" width="10.6" height="5.3" x=".277" y="17.254" ry="0" transform="rotate(-15.213)"/>
    </g>
</svg>
