<svg width="10.6" height="30.6" id="svg4136" version="1.1" xmlns="http://www.w3.org/2000/svg">
    <defs id="defs4138">
        <marker orient="auto" refY="0" refX="0" id="Arrow1Mend" style="overflow:visible">
            <path id="path4750" d="m0 0 5-5-17.5 5L5 5Z" style="fill:#000000;fill-opacity:1;fill-rule:evenodd;stroke:#000000;stroke-width:1pt;stroke-opacity:1" transform="matrix(-.4 0 0 -.4 -4 0)"/>
        </marker>
        <marker orient="auto" refY="0" refX="0" id="Arrow2Mend" style="overflow:visible">
            <path id="path4768" style="fill:#000000;fill-opacity:1;fill-rule:evenodd;stroke:#000000;stroke-width:0.625;stroke-linejoin:round;stroke-opacity:1" d="M8.719 4.034-2.207.016 8.719-4.002c-1.746 2.372-1.736 5.618 0 8.036z" transform="scale(-.6)"/>
        </marker>
        <marker orient="auto" refY="0" refX="0" id="Arrow1Send" style="overflow:visible">
            <path id="path4756" d="m0 0 5-5-17.5 5L5 5Z" style="fill:#000000;fill-opacity:1;fill-rule:evenodd;stroke:#000000;stroke-width:1pt;stroke-opacity:1" transform="matrix(-.2 0 0 -.2 -1.2 0)"/>
        </marker>
        <marker orient="auto" refY="0" refX="0" id="Arrow1Lstart" style="overflow:visible">
            <path id="path4741" d="m0 0 5-5-17.5 5L5 5Z" style="fill:#000000;fill-opacity:1;fill-rule:evenodd;stroke:#000000;stroke-width:1pt;stroke-opacity:1" transform="matrix(.8 0 0 .8 10 0)"/>
        </marker>
        <marker orient="auto" refY="0" refX="0" id="Arrow1Lend" style="overflow:visible">
            <path id="path4744" d="m0 0 5-5-17.5 5L5 5Z" style="fill:#000000;fill-opacity:1;fill-rule:evenodd;stroke:#000000;stroke-width:1pt;stroke-opacity:1" transform="matrix(-.8 0 0 -.8 -10 0)"/>
        </marker>
    </defs>
    <g id="layer1">
        <path style="fill:#000000;stroke:#000000;stroke-width:0.6;stroke-opacity:1" d="M5.284 0 5.3 30.613" id="path1"/>
        <path style="fill:#000000;stroke:#000000;stroke-width:0.6;stroke-opacity:1" d="M5.292 15.306.007 15.3" id="path2"/>
        <path style="fill:#000000;stroke:#000000;stroke-width:0.6;stroke-opacity:1" d="M5.3.3h2" id="path3"/>
        <path style="fill:#000000;stroke:#000000;stroke-width:0.6;stroke-opacity:1" d="M10.3.3h-3" id="path4"/>
        <path style="fill:#000000;stroke:#000000;stroke-width:0.6;stroke-opacity:1" d="M5.3 10.3h5" id="path5"/>
        <path style="fill:#000000;stroke:#000000;stroke-width:0.6;stroke-opacity:1" d="M5.3 20.3h5" id="path6"/>
        <path style="fill:#000000;stroke:#000000;stroke-width:0.6;stroke-opacity:1" d="M5.3 30.3h5" id="path7"/>
    </g>
</svg>
