<svg width="75.342" height="40" id="svg4136" version="1.1" xmlns="http://www.w3.org/2000/svg">
    <defs id="defs4138">
        <marker orient="auto" refY="0" refX="0" id="Arrow1Mend" style="overflow:visible">
            <path id="path4750" d="m0 0 5-5-17.5 5L5 5Z" style="fill:#000000;fill-opacity:1;fill-rule:evenodd;stroke:#000000;stroke-width:1pt;stroke-opacity:1" transform="matrix(-.4 0 0 -.4 -4 0)"/>
        </marker>
        <marker orient="auto" refY="0" refX="0" id="Arrow2Mend" style="overflow:visible">
            <path id="path4768" style="fill:#000000;fill-opacity:1;fill-rule:evenodd;stroke:#000000;stroke-width:0.625;stroke-linejoin:round;stroke-opacity:1" d="M8.719 4.034-2.207.016 8.719-4.002c-1.746 2.372-1.736 5.618 0 8.036z" transform="scale(-.6)"/>
        </marker>
        <marker orient="auto" refY="0" refX="0" id="Arrow1Send" style="overflow:visible">
            <path id="path4756" d="m0 0 5-5-17.5 5L5 5Z" style="fill:#000000;fill-opacity:1;fill-rule:evenodd;stroke:#000000;stroke-width:1pt;stroke-opacity:1" transform="matrix(-.2 0 0 -.2 -1.2 0)"/>
        </marker>
        <marker orient="auto" refY="0" refX="0" id="Arrow1Lstart" style="overflow:visible">
            <path id="path4741" d="m0 0 5-5-17.5 5L5 5Z" style="fill:#000000;fill-opacity:1;fill-rule:evenodd;stroke:#000000;stroke-width:1pt;stroke-opacity:1" transform="matrix(.8 0 0 .8 10 0)"/>
        </marker>
        <marker orient="auto" refY="0" refX="0" id="Arrow1Lend" style="overflow:visible">
            <path id="path4744" d="m0 0 5-5-17.5 5L5 5Z" style="fill:#000000;fill-opacity:1;fill-rule:evenodd;stroke:#000000;stroke-width:1pt;stroke-opacity:1" transform="matrix(-.8 0 0 -.8 -10 0)"/>
        </marker>
    </defs>
    <g id="layer1">
        <path style="fill:none;fill-rule:evenodd;stroke:#000000;stroke-width:0.6;stroke-linecap:butt;stroke-linejoin:miter;stroke-miterlimit:4;stroke-dasharray:none;stroke-opacity:1" d="M20 0v5" id="path4711"/>
        <path style="fill:none;fill-rule:evenodd;stroke:#1804c0;stroke-width:0.6;stroke-linecap:butt;stroke-linejoin:miter;stroke-miterlimit:4;stroke-dasharray:none;stroke-opacity:1" d="M65 0v5" id="path4713"/>
        <rect style="fill:none;fill-rule:evenodd;stroke:#000000;stroke-width:0.606117;stroke-linecap:butt;stroke-linejoin:miter;stroke-miterlimit:4;stroke-dasharray:none;stroke-opacity:1" id="rect4184" width="64.694" height="34.394" x="10.303" y="5.303" ry="0"/>
        <path style="opacity:0.94;fill:none;fill-opacity:1;fill-rule:nonzero;stroke:#000000;stroke-width:0.6;stroke-linecap:square;stroke-linejoin:miter;stroke-miterlimit:4;stroke-dasharray:none;stroke-dashoffset:0;stroke-opacity:1" id="path4186" d="M-36-29.5a7 7 0 0 1-3.5 6.062 7 7 0 0 1-7 0A7 7 0 0 1-50-29.5" transform="scale(-1)"/>
        <path style="fill:none;fill-rule:evenodd;stroke:#000000;stroke-width:0.6;stroke-linecap:butt;stroke-linejoin:miter;stroke-miterlimit:4;stroke-dasharray:none;stroke-opacity:1" d="M35 22h15" id="path4188"/>
        <path style="fill:none;fill-rule:evenodd;stroke:#000000;stroke-width:0.6;stroke-linecap:butt;stroke-linejoin:miter;stroke-miterlimit:4;stroke-dasharray:none;stroke-opacity:1" d="M43 22v-7.982" id="path4190"/>
        <path style="fill:none;fill-rule:evenodd;stroke:#000000;stroke-width:0.6;stroke-linecap:butt;stroke-linejoin:miter;stroke-miterlimit:4;stroke-dasharray:none;stroke-opacity:1" d="M35 0v5" id="path1"/>
        <path style="fill:none;fill-rule:evenodd;stroke:#000000;stroke-width:0.6;stroke-linecap:butt;stroke-linejoin:miter;stroke-miterlimit:4;stroke-dasharray:none;stroke-opacity:1" d="M50 0v5" id="path2"/>
        <path style="fill:none;fill-rule:evenodd;stroke:#000000;stroke-width:0.6;stroke-linecap:butt;stroke-linejoin:miter;stroke-miterlimit:4;stroke-dasharray:none;stroke-opacity:1" d="m40.823 18.564 4.354-2.009" id="path3"/>
        <path style="fill:none;fill-rule:evenodd;stroke:#000000;stroke-width:0.6;stroke-linecap:butt;stroke-linejoin:miter;stroke-miterlimit:4;stroke-dasharray:none;stroke-opacity:1" d="m40.823 17.004 4.354-2.008" id="path3-1"/>
        <path style="fill:none;fill-rule:evenodd;stroke:#000000;stroke-width:0.6;stroke-linecap:butt;stroke-linejoin:miter;stroke-miterlimit:4;stroke-dasharray:none;stroke-opacity:1" d="m40.823 20.123 4.354-2.009" id="path3-1-4"/>
    </g>
</svg>
