<svg width="180.3" height="65" id="svg4136" version="1.1" xmlns="http://www.w3.org/2000/svg">
    <defs id="defs4138">
        <marker orient="auto" refY="0" refX="0" id="Arrow1Mend" style="overflow:visible">
            <path id="path4750" d="m0 0 5-5-17.5 5L5 5Z" style="fill:#000000;fill-opacity:1;fill-rule:evenodd;stroke:#000000;stroke-width:1pt;stroke-opacity:1" transform="matrix(-.4 0 0 -.4 -4 0)"/>
        </marker>
        <marker orient="auto" refY="0" refX="0" id="Arrow2Mend" style="overflow:visible">
            <path id="path4768" style="fill:#000000;fill-opacity:1;fill-rule:evenodd;stroke:#000000;stroke-width:0.625;stroke-linejoin:round;stroke-opacity:1" d="M8.719 4.034-2.207.016 8.719-4.002c-1.746 2.372-1.736 5.618 0 8.036z" transform="scale(-.6)"/>
        </marker>
        <marker orient="auto" refY="0" refX="0" id="Arrow1Send" style="overflow:visible">
            <path id="path4756" d="m0 0 5-5-17.5 5L5 5Z" style="fill:#000000;fill-opacity:1;fill-rule:evenodd;stroke:#000000;stroke-width:1pt;stroke-opacity:1" transform="matrix(-.2 0 0 -.2 -1.2 0)"/>
        </marker>
        <marker orient="auto" refY="0" refX="0" id="Arrow1Lstart" style="overflow:visible">
            <path id="path4741" d="m0 0 5-5-17.5 5L5 5Z" style="fill:#000000;fill-opacity:1;fill-rule:evenodd;stroke:#000000;stroke-width:1pt;stroke-opacity:1" transform="matrix(.8 0 0 .8 10 0)"/>
        </marker>
        <marker orient="auto" refY="0" refX="0" id="Arrow1Lend" style="overflow:visible">
            <path id="path4744" d="m0 0 5-5-17.5 5L5 5Z" style="fill:#000000;fill-opacity:1;fill-rule:evenodd;stroke:#000000;stroke-width:1pt;stroke-opacity:1" transform="matrix(-.8 0 0 -.8 -10 0)"/>
        </marker>
    </defs>
    <g id="layer1">
        <rect style="display:inline;fill:none;fill-rule:evenodd;stroke:#000000;stroke-width:0.600282;stroke-linecap:butt;stroke-linejoin:miter;stroke-miterlimit:4;stroke-dasharray:none;stroke-opacity:1" id="rect4192" width="109.4" height="64.426" x="10.3" y=".3" ry="0"/>
        <path style="display:inline;fill:none;fill-rule:evenodd;stroke:#000000;stroke-width:0.6;stroke-linecap:butt;stroke-linejoin:miter;stroke-miterlimit:4;stroke-dasharray:none;stroke-opacity:1" d="m10 15 109.7.014" id="path4222"/>
        <text xml:space="preserve" style="display:inline;font-style:normal;font-variant:normal;font-weight:normal;font-stretch:normal;line-height:0%;font-family:sans-serif;-inkscape-font-specification:'sans-serif, Normal';text-align:start;letter-spacing:0px;word-spacing:0px;writing-mode:lr-tb;text-anchor:start;fill:#000000;fill-opacity:1;stroke:none;stroke-width:1px;stroke-linecap:butt;stroke-linejoin:miter;stroke-opacity:1" x="51.118" y="44.749" id="text4224"><tspan id="tspan4226" x="51.118" y="44.749" style="font-size:12.5px;line-height:1.25">kWh</tspan></text>
        <path style="display:inline;fill:#000000;stroke:#000000;stroke-width:0.6;stroke-linecap:butt;stroke-dashoffset:1.56" d="M135 65V0" id="path1"/>
        <path style="display:inline;fill:#000000;stroke:#000000;stroke-width:0.6;stroke-linecap:butt;stroke-dashoffset:1.56" d="M150 65V0" id="path2"/>
        <path style="display:inline;fill:#000000;stroke:#000000;stroke-width:0.6;stroke-linecap:butt;stroke-dashoffset:1.56" d="M165 65V0" id="path3"/>
        <path style="display:inline;fill:#000000;stroke:#1804c0;stroke-width:0.6;stroke-linecap:butt;stroke-dasharray:4, 4;stroke-dashoffset:0;stroke-opacity:1" d="M180 65V0" id="path4"/>
        <path style="display:inline;fill:#000000;stroke:#000000;stroke-width:0.6;stroke-linecap:square;stroke-dashoffset:1.56" d="M140 20h-20" id="path13"/>
        <path style="display:inline;fill:#000000;stroke:#000000;stroke-width:0.6;stroke-linecap:square;stroke-dashoffset:1.56" d="M140.15 30H120" id="path13-3"/>
        <path style="display:inline;fill:#000000;stroke:#000000;stroke-width:0.6;stroke-linecap:square;stroke-dashoffset:1.56" d="M155 35h-35" id="path14"/>
        <path style="display:inline;fill:#000000;stroke:#000000;stroke-width:0.6;stroke-linecap:square;stroke-dashoffset:1.56" d="M155.15 45H120" id="path14-8"/>
        <path style="display:inline;fill:#000000;stroke:#000000;stroke-width:0.6;stroke-linecap:square;stroke-dashoffset:1.56" d="M170.15 50 120 49.977" id="path15"/>
        <path style="display:inline;fill:#000000;stroke:#000000;stroke-width:0.6;stroke-linecap:square;stroke-dashoffset:1.56" d="M170 60h-50" id="path15-5"/>
        <path style="display:inline;fill:#000000;fill-opacity:1;stroke:#000000;stroke-width:0.6;stroke-linecap:square;stroke-dasharray:none;stroke-dashoffset:0;stroke-opacity:1" id="rect17" d="M138.484 20h3.033v9.998h-3.033z"/>
        <path style="display:inline;fill:#000000;fill-opacity:1;stroke:#000000;stroke-width:0.6;stroke-linecap:square;stroke-dasharray:none;stroke-dashoffset:0;stroke-opacity:1" id="rect17-13" d="M153.506 35h2.988v10h-2.988z"/>
        <path style="display:inline;fill:#000000;fill-opacity:1;stroke:#000000;stroke-width:0.602057;stroke-linecap:square;stroke-dasharray:none;stroke-dashoffset:0;stroke-opacity:1" id="rect17-6" d="M168.5 50h3v10h-3z"/>
    </g>
</svg>
